# xmcd
#
# Track frame offsets:
#	150
#	10167
#	25988
#	43735
#	59860
#	79699
#	91327
#	109260
#	123873
#	137736
#	157178
#	165962
#	184136
#	197431
#	215101
#	227949
#	253002
#
# Disc length: 3505 seconds
# Revision: 0
# Processed by: cddbd v1.5.2PL0 Copyright (c) Steve Scherf et al.
# Submitted via: dBpowerAMP V12.0
#
DISCID=ee0daf11
DTITLE=Henry Townsend - Original St. Louis Blues Live
DYEAR=2015
DGENRE=Blues
TTITLE0=Sloppy Drunk
TTITLE1=M&O Blues
TTITLE2=Come On In My House
TTITLE3=All My Money Gone
TTITLE4=Old Clock Tickin'
TTITLE5=44 Blues (Live)
TTITLE6=Why We Love Each Other
TTITLE7=Going Down Slow
TTITLE8=Cairo Blues
TTITLE9=Rollin And Tumblin
TTITLE10=Guitar Talkin'
TTITLE11=When The Sun Rise
TTITLE12=I Cry All Night
TTITLE13=Got To Go
TTITLE14=Moanin And Cryin'
TTITLE15=I'm Sorry My Heart
TTITLE16=Biddle Street
EXTD=
EXTT0=
EXTT1=
EXTT2=
EXTT3=
EXTT4=
EXTT5=
EXTT6=
EXTT7=
EXTT8=
EXTT9=
EXTT10=
EXTT11=
EXTT12=
EXTT13=
EXTT14=
EXTT15=
EXTT16=
PLAYORDER=
